<svg id="Layer_1" data-name="Layer 1" xmlns="http://www.w3.org/2000/svg" xmlns:xlink="http://www.w3.org/1999/xlink" viewBox="0 0 1084.8337 969.0236"><defs><style>.cls-1,.cls-8,.cls-9{fill:none;}.cls-2{fill:url(#linear-gradient);}.cls-15,.cls-3{fill:#fff;}.cls-4{fill:#0044f4;}.cls-5{fill:#08f;}.cls-6{fill:#666;}.cls-7{fill:#0179fe;}.cls-8{stroke:gray;stroke-width:2.96082px;stroke-dasharray:15.59881 15.59881;}.cls-15,.cls-8,.cls-9{stroke-miterlimit:10;}.cls-9{stroke:#fff;stroke-linecap:round;stroke-width:3.9958px;}.cls-10{clip-path:url(#clip-path);}.cls-11{fill:#0765fa;}.cls-12{fill:#2791fa;}.cls-13{fill:#0747e6;}.cls-14{fill:#222cd8;}.cls-15{stroke:#000;stroke-width:0.57741px;}</style><linearGradient id="linear-gradient" x1="52.27295" y1="942.14191" x2="882.47091" y2="942.14191" gradientUnits="userSpaceOnUse"><stop offset="0" stop-color="#017cfe"/><stop offset="0.99724" stop-color="#0113fe"/></linearGradient><clipPath id="clip-path" transform="translate(-35.17849 -24.36209)"><path id="SVGID" class="cls-1" d="M967.24273,494.30583a97.1865,97.1865,0,1,0,97.18529,97.18771A97.18731,97.18731,0,0,0,967.24273,494.30583Zm0,136.226a39.03827,39.03827,0,1,1,39.03822-39.03827A39.03987,39.03987,0,0,1,967.24273,630.53181Z"/></clipPath></defs><path class="cls-2" d="M61.42749,913.73973,52.273,894.19019H59.6206l2.71373,6.9806c.81169,2.277,1.60694,4.383,2.47357,6.73591h.18636c.86662-2.35292,1.73269-4.45889,2.56646-6.73591l2.7143-6.9806h7.17716l-9.15454,19.54954v10.83795H61.42749Zm14.77855-.71936c0-7.6909,5.41445-12.13392,11.2673-12.13392s11.26673,4.443,11.26673,12.13392c0,7.67391-5.41387,12.11694-11.26673,12.11694S76.206,920.69428,76.206,913.02037Zm15.51038,0c0-4.00348-1.40869-6.60223-4.24308-6.60223-2.83495,0-4.24364,2.59875-4.24364,6.60223s1.40869,6.58524,4.24364,6.58524C90.30773,919.60561,91.71642,917.02385,91.71642,913.02037Zm11.48481,2.78567v-14.36H110.055v13.482c0,3.32944.89325,4.37052,2.8729,4.37052,1.72136,0,2.77434-.72389,4.11167-2.54437V901.44607h6.85372v23.13161h-5.59116l-.49392-3.20822h-.1705c-1.93037,2.30307-4.1077,3.76785-7.26211,3.76785C105.3457,925.13731,103.20123,921.5881,103.20123,915.806Zm26.6961-14.36h5.59117l.49392,4.04314h.1705c1.684-3.08815,4.21249-4.60276,6.57108-4.60276a6.43575,6.43575,0,0,1,2.75961.46673l-1.14134,5.91573a9.38924,9.38924,0,0,0-2.49623-.37384c-1.744,0-3.86131,1.12492-5.095,4.27763v13.405h-6.85373Zm25.82949,20.46036,3.08417-4.26857a10.0212,10.0212,0,0,0,5.96727,2.42882c2.03913,0,2.92218-.77826,2.92218-1.98928,0-1.52481-2.29288-2.21471-4.673-3.14705-2.83552-1.09773-6.12077-2.97938-6.12077-6.80274,0-4.306,3.49993-7.24116,8.83734-7.24116a13.15753,13.15753,0,0,1,8.152,2.92954l-3.06718,4.11563a8.59834,8.59834,0,0,0-4.87068-1.97455c-1.77064,0-2.64236.6933-2.64236,1.84767,0,1.475,2.166,2.03913,4.56311,2.91142,2.929,1.083,6.23066,2.7313,6.23066,6.96021,0,4.18587-3.30282,7.46094-9.50176,7.46094A15.00705,15.00705,0,0,1,155.72682,921.90643Zm21.353-8.88606c0-7.504,5.35384-12.13392,10.91045-12.13392,6.58864,0,9.85237,4.78967,9.85237,11.103a15.49647,15.49647,0,0,1-.28547,3.0281H183.71947c.61457,3.3555,2.912,4.89617,5.999,4.89617a9.64868,9.64868,0,0,0,5.00209-1.51462l2.26626,4.13263a15.0556,15.0556,0,0,1-8.20635,2.60555C182.18673,925.13731,177.07985,920.67729,177.07985,913.02037Zm14.9077-2.53531c0-2.54324-1.10735-4.37392-3.84375-4.37392-2.16543,0-4.0352,1.45231-4.50136,4.37392Zm9.23837,2.53531c0-7.6909,5.66084-12.13392,12.0518-12.13392a10.05156,10.05156,0,0,1,6.758,2.49113l-3.23768,4.40564a4.67793,4.67793,0,0,0-3.13629-1.36508c-3.29545,0-5.41218,2.59875-5.41218,6.60223s2.20452,6.58524,5.18165,6.58524a6.94049,6.94049,0,0,0,4.17341-1.70493l2.68314,4.48267a11.55423,11.55423,0,0,1-7.62462,2.754C206.20648,925.13731,201.22592,920.69428,201.22592,913.02037Zm22.89314,2.78567v-14.36h6.85373v13.482c0,3.32944.89325,4.37052,2.8729,4.37052,1.72136,0,2.77434-.72389,4.11167-2.54437V901.44607h6.85372v23.13161h-5.59116l-.49393-3.20822h-.17049c-1.93037,2.30307-4.1077,3.76785-7.26212,3.76785C226.26354,925.13731,224.11906,921.5881,224.11906,915.806Zm26.69611-14.36h5.59117l.49392,4.04314h.17049c1.684-3.08815,4.2125-4.60276,6.57108-4.60276a6.43577,6.43577,0,0,1,2.75962.46673l-1.14134,5.91573a9.38931,9.38931,0,0,0-2.49623-.37384c-1.744,0-3.86131,1.12492-5.095,4.27763v13.405h-6.85373Zm16.74348,11.5743c0-7.504,5.35384-12.13392,10.91045-12.13392,6.58864,0,9.85238,4.78967,9.85238,11.103a15.49631,15.49631,0,0,1-.28548,3.0281H274.19827c.61457,3.3555,2.912,4.89617,5.999,4.89617a9.64863,9.64863,0,0,0,5.00209-1.51462l2.26626,4.13263a15.0556,15.0556,0,0,1-8.20634,2.60555C272.66553,925.13731,267.55865,920.67729,267.55865,913.02037Zm14.90771-2.53531c0-2.54324-1.10736-4.37392-3.84375-4.37392-2.16544,0-4.03521,1.45231-4.50137,4.37392Zm19.90469-9.039h5.59116l.49392,2.27589h.1705a10.275,10.275,0,0,1,6.58694-2.83551c5.60023,0,9.02879,4.62994,9.02879,11.76122,0,7.93672-4.72284,12.48964-9.73059,12.48964a8.09853,8.09853,0,0,1-5.51753-2.413l.23053,3.658v6.779h-6.85372Zm14.84709,11.2775c0-4.15076-1.283-6.2284-4.01877-6.2284a5.32869,5.32869,0,0,0-3.9746,2.072v9.49779a5.51541,5.51541,0,0,0,3.68968,1.46477C315.30476,919.52971,317.21814,917.51211,317.21814,912.72357Zm11.49047,4.66619V891.9143h6.85372v25.75528c0,1.47043.68028,1.936,1.23991,1.936a2.99876,2.99876,0,0,0,.83887-.09289l.81791,5.05363a8.85718,8.85718,0,0,1-3.44045.571C330.31612,925.13731,328.70861,922.06956,328.70861,917.38976Zm12.26817.77261c0-4.87351,3.87773-7.51191,13.026-8.4771-.13707-2.02326-1.14644-3.34416-3.6574-3.34416a12.72126,12.72126,0,0,0-6.12077,2.0901l-2.43619-4.49967a18.89884,18.89884,0,0,1,9.87956-3.04509c5.91346,0,9.18853,3.37928,9.18853,10.4675v13.22373h-5.59117l-.49392-2.36878h-.16993a10.16066,10.16066,0,0,1-6.72968,2.92841A6.66155,6.66155,0,0,1,340.97678,918.16237Zm13.026-.30474v-4.04087c-4.87351.65819-6.46346,2.05046-6.46346,3.79957,0,1.49083,1.02523,2.22038,2.6537,2.22038C351.74449,919.83671,352.78614,919.06864,354.00282,917.85763Zm12.69185-1.69021V906.8237h-3.15951V901.71l3.54355-.264.80092-6.14229h5.66877v6.14229h5.54472v5.37763H373.5484v9.261c0,2.62255,1.19062,3.675,2.99411,3.675a6.89616,6.89616,0,0,0,2.19943-.43841l1.08073,4.9766a16.29677,16.29677,0,0,1-5.14029.83944C368.966,925.13731,366.69467,921.52692,366.69467,916.16742ZM381.72925,901.71l3.46142-.264h10.63177v5.37763H381.72925Zm3.07682-1.46251c0-4.88257,2.26569-8.89285,8.50938-8.89285a13.38637,13.38637,0,0,1,4.61352.82245l-1.23424,5.05363a6.65241,6.65241,0,0,0-2.3971-.49845c-1.67209,0-2.63784.921-2.63784,3.317v24.52841h-6.85372Zm12.90086,12.77285c0-7.6909,5.41444-12.13392,11.2673-12.13392s11.26673,4.443,11.26673,12.13392c0,7.67391-5.41388,12.11694-11.26673,12.11694S397.70693,920.69428,397.70693,913.02037Zm15.51038,0c0-4.00348-1.4087-6.60223-4.24308-6.60223-2.83495,0-4.24365,2.59875-4.24365,6.60223s1.4087,6.58524,4.24365,6.58524C411.80861,919.60561,413.21731,917.02385,413.21731,913.02037Zm11.704-11.5743h5.59116l.49393,4.04314h.17049c1.684-3.08815,4.21249-4.60276,6.57108-4.60276a6.43575,6.43575,0,0,1,2.75961.46673l-1.14134,5.91573a9.38924,9.38924,0,0,0-2.49623-.37384c-1.744,0-3.86131,1.12492-5.095,4.27763v13.405h-6.85372Zm18.55263,0h5.59117l.49392,2.96693h.1705c1.89752-1.90771,3.97063-3.52655,7.00949-3.52655a6.3979,6.3979,0,0,1,6.38529,3.89473c2.03459-2.123,4.20626-3.89473,7.26212-3.89473,4.997,0,7.23493,3.54921,7.23493,9.33126v14.36h-6.85373v-13.482c0-3.32831-.91024-4.37053-2.85647-4.37053-1.1623,0-2.47811.72389-3.93665,2.24757v15.605H457.1208v-13.482c0-3.32831-.91024-4.37053-2.85648-4.37053-1.14587,0-2.4781.72389-3.93664,2.24757v15.605H443.474Zm50.19873,14.72135V906.8237h-3.15951V901.71l3.54354-.264.80093-6.14229h5.66876v6.14229h5.54472v5.37763H500.5264v9.261c0,2.62255,1.19062,3.675,2.99412,3.675a6.89615,6.89615,0,0,0,2.19942-.43841l1.08074,4.9766a16.2969,16.2969,0,0,1-5.1403.83944C495.944,925.13731,493.67268,921.52692,493.67268,916.16742Zm14.744-3.14705c0-7.6909,5.41445-12.13392,11.2673-12.13392s11.26673,4.443,11.26673,12.13392c0,7.67391-5.41387,12.11694-11.26673,12.11694S508.41668,920.69428,508.41668,913.02037Zm15.51038,0c0-4.00348-1.4087-6.60223-4.24308-6.60223-2.835,0-4.24365,2.59875-4.24365,6.60223s1.4087,6.58524,4.24365,6.58524C522.51836,919.60561,523.92706,917.02385,523.92706,913.02037Zm18.60928,8.88606,3.08361-4.26857a10.0212,10.0212,0,0,0,5.96727,2.42882c2.03913,0,2.92218-.77826,2.92218-1.98928,0-1.52481-2.29288-2.21471-4.673-3.14705-2.83552-1.09773-6.12078-2.97938-6.12078-6.80274,0-4.306,3.49993-7.24116,8.83734-7.24116a13.15754,13.15754,0,0,1,8.152,2.92954l-3.06718,4.11563a8.59834,8.59834,0,0,0-4.87068-1.97455c-1.77064,0-2.64236.6933-2.64236,1.84767,0,1.475,2.166,2.03913,4.5631,2.91142,2.929,1.083,6.23066,2.7313,6.23066,6.96021,0,4.18587-3.30281,7.46094-9.50175,7.46094A15.00406,15.00406,0,0,1,542.53634,921.90643Zm21.3519-8.88606c0-7.504,5.35384-12.13392,10.91045-12.13392,6.58864,0,9.85237,4.78967,9.85237,11.103a15.49647,15.49647,0,0,1-.28547,3.0281H570.52786c.61457,3.3555,2.912,4.89617,5.999,4.89617a9.64868,9.64868,0,0,0,5.00209-1.51462l2.26626,4.13263a15.0556,15.0556,0,0,1-8.20635,2.60555C568.99512,925.13731,563.88824,920.67729,563.88824,913.02037Zm14.9077-2.53531c0-2.54324-1.10735-4.37392-3.84375-4.37392-2.16543,0-4.0352,1.45231-4.50136,4.37392Zm10.58193-9.039H594.969l.49392,2.92955h.17049c1.9468-1.87033,4.2782-3.48917,7.432-3.48917,5.02985,0,7.17489,3.54921,7.17489,9.33126v14.36h-6.85372v-13.482c0-3.32831-.89382-4.37053-2.8729-4.37053-1.72193,0-2.77435.80092-4.28217,2.24757v15.605h-6.85372Zm25.4732,11.5743c0-7.564,4.72284-12.13392,9.59352-12.13392a7.614,7.614,0,0,1,5.671,2.41409l-.247-3.505V891.9143h6.85372v32.66338h-5.59173l-.49392-2.29288h-.16993a9.1656,9.1656,0,0,1-6.15362,2.85251C618.56454,925.13731,614.85107,920.57306,614.85107,913.02037Zm15.01759,4.43623v-9.49779a5.60941,5.60941,0,0,0-3.82733-1.46364c-2.21981,0-4.16661,2.04932-4.16661,6.44817,0,4.54045,1.56843,6.58637,4.22212,6.58637A4.409,4.409,0,0,0,629.86866,917.4566Zm21.14232.70577c0-4.87351,3.87774-7.51191,13.026-8.4771-.13708-2.02326-1.14644-3.34416-3.6574-3.34416a12.72126,12.72126,0,0,0-6.12077,2.0901l-2.43619-4.49967a18.89881,18.89881,0,0,1,9.87956-3.04509c5.91346,0,9.18852,3.37928,9.18852,10.4675v13.22373h-5.59116l-.49393-2.36878h-.16992a10.16068,10.16068,0,0,1-6.72968,2.92841A6.66156,6.66156,0,0,1,651.011,918.16237Zm13.026-.30474v-4.04087c-4.87351.65819-6.46346,2.05046-6.46346,3.79957,0,1.49083,1.02522,2.22038,2.65369,2.22038C661.7787,919.83671,662.82035,919.06864,664.037,917.85763Zm12.60349-16.41156h5.59173l.49336,2.92955h.17049c1.9468-1.87033,4.2782-3.48917,7.432-3.48917,5.02985,0,7.17489,3.54921,7.17489,9.33126v14.36h-6.85372v-13.482c0-3.32831-.89382-4.37053-2.8729-4.37053-1.72193,0-2.77435.80092-4.28217,2.24757v15.605h-6.85372Zm25.4732,11.5743c0-7.564,4.72284-12.13392,9.59352-12.13392a7.614,7.614,0,0,1,5.671,2.41409l-.247-3.505V891.9143H723.985v32.66338H718.3933l-.49392-2.29288h-.16993a9.1656,9.1656,0,0,1-6.15363,2.85251C705.82719,925.13731,702.11372,920.57306,702.11372,913.02037Zm15.01759,4.43623v-9.49779a5.60942,5.60942,0,0,0-3.82733-1.46364c-2.21981,0-4.16661,2.04932-4.16661,6.44817,0,4.54045,1.56843,6.58637,4.22212,6.58637A4.4083,4.4083,0,0,0,717.13131,917.4566Zm22.2055-16.01053h5.59173l.49336,4.04314h.17049c1.684-3.08815,4.21249-4.60276,6.57108-4.60276a6.4358,6.4358,0,0,1,2.75962.46673l-1.14135,5.91573a9.38917,9.38917,0,0,0-2.49622-.37384c-1.744,0-3.86131,1.12492-5.095,4.27763v13.405h-6.85373Zm16.74348,11.5743c0-7.504,5.35384-12.13392,10.91045-12.13392,6.58864,0,9.85237,4.78967,9.85237,11.103a15.49647,15.49647,0,0,1-.28547,3.0281H762.71991c.61457,3.3555,2.912,4.89617,5.999,4.89617a9.64868,9.64868,0,0,0,5.00209-1.51462l2.26626,4.13263a15.0556,15.0556,0,0,1-8.20635,2.60555C761.18717,925.13731,756.08029,920.67729,756.08029,913.02037Zm14.9077-2.53531c0-2.54324-1.10736-4.37392-3.84375-4.37392-2.16543,0-4.0352,1.45231-4.50137,4.37392Zm9.23837,2.53531c0-7.6909,5.66084-12.13392,12.0518-12.13392a10.05156,10.05156,0,0,1,6.758,2.49113l-3.23768,4.40564a4.67793,4.67793,0,0,0-3.13629-1.36508c-3.29545,0-5.41218,2.59875-5.41218,6.60223s2.20452,6.58524,5.18165,6.58524a6.94051,6.94051,0,0,0,4.17341-1.70493l2.68314,4.48267a11.55423,11.55423,0,0,1-7.62462,2.754C785.20692,925.13731,780.22636,920.69428,780.22636,913.02037Zm20.46375,0c0-7.504,5.35384-12.13392,10.91045-12.13392,6.58864,0,9.85237,4.78967,9.85237,11.103a15.49647,15.49647,0,0,1-.28547,3.0281H807.32973c.61457,3.3555,2.912,4.89617,5.999,4.89617a9.64868,9.64868,0,0,0,5.00209-1.51462l2.26626,4.13263a15.0556,15.0556,0,0,1-8.20635,2.60555C805.797,925.13731,800.69011,920.67729,800.69011,913.02037Zm14.9077-2.53531c0-2.54324-1.10735-4.37392-3.84375-4.37392-2.16543,0-4.0352,1.45231-4.50136,4.37392Zm10.05006-16.00486a3.98749,3.98749,0,1,1,3.96666,3.58319A3.64876,3.64876,0,0,1,825.64787,894.4802Zm.53187,6.96587h6.85372v23.13161h-6.85372Zm10.4086,0h6.88658l3.01,10.91952c.59248,2.29854,1.20082,4.69,1.7933,7.10861h.18635c.59248-2.41863,1.20139-4.81007,1.79387-7.10861l3.01-10.91952H859.831l-7.547,23.13161h-7.90161Zm25.11975,11.5743c0-7.504,5.35384-12.13392,10.91045-12.13392,6.58864,0,9.85237,4.78967,9.85237,11.103a15.49647,15.49647,0,0,1-.28547,3.0281H868.34771c.61457,3.3555,2.912,4.89617,5.999,4.89617a9.64868,9.64868,0,0,0,5.00209-1.51462l2.26626,4.13263a15.0556,15.0556,0,0,1-8.20635,2.60555C866.815,925.13731,861.70809,920.67729,861.70809,913.02037Zm14.9077-2.53531c0-2.54324-1.10735-4.37392-3.84375-4.37392-2.16543,0-4.0352,1.45231-4.50137,4.37392ZM284.72752,961.20942h5.59173l.49336,2.96806h.17049c1.89752-1.90884,3.97063-3.52768,7.00949-3.52768a6.3979,6.3979,0,0,1,6.38529,3.89473c2.0346-2.123,4.20627-3.89473,7.26212-3.89473,4.997,0,7.23493,3.55034,7.23493,9.33126v14.36H312.0212V970.859c0-3.32831-.91024-4.37053-2.85647-4.37053-1.1623,0-2.4781.72389-3.93664,2.24757v15.605h-6.85373V970.859c0-3.32831-.91024-4.37053-2.85647-4.37053-1.14588,0-2.47811.72389-3.93665,2.24757v15.605h-6.85372Zm38.60516,11.5743c0-7.6909,5.41388-12.13392,11.2673-12.13392,5.85286,0,11.26673,4.443,11.26673,12.13392,0,7.67391-5.41387,12.11694-11.26673,12.11694C328.74656,984.90066,323.33268,980.45763,323.33268,972.78372Zm15.51038,0c0-4.00348-1.4087-6.60223-4.24308-6.60223-2.83495,0-4.24364,2.59875-4.24364,6.60223S331.765,979.369,334.6,979.369C337.43436,979.369,338.84306,976.78721,338.84306,972.78372Zm11.70458-11.5743h5.59116l.49392,2.92955h.1705c1.9468-1.87033,4.2782-3.48917,7.432-3.48917,5.02984,0,7.17489,3.55034,7.17489,9.33126v14.36h-6.85373V970.859c0-3.32831-.89381-4.37053-2.8729-4.37053-1.72192,0-2.77434.80093-4.28216,2.24757v15.605h-6.85372Zm25.3197,11.5743c0-7.504,5.35383-12.13392,10.91045-12.13392,6.58864,0,9.85237,4.78968,9.85237,11.103a15.49631,15.49631,0,0,1-.28548,3.0281H382.507c.61457,3.3555,2.912,4.89617,5.999,4.89617a9.65751,9.65751,0,0,0,5.00208-1.51349l2.26626,4.1315a15.05557,15.05557,0,0,1-8.20634,2.60555C380.97421,984.90066,375.86734,980.44064,375.86734,972.78372Zm14.9077-2.53531c0-2.54324-1.10736-4.37392-3.84375-4.37392-2.16544,0-4.0352,1.45231-4.50137,4.37392Zm9.602,22.67054,1.21781-5.22356a6.93451,6.93451,0,0,0,1.55767.29567,3.96118,3.96118,0,0,0,4.04709-3.03716l.34552-1.20535-8.924-22.53913h6.88658l3.30621,9.9532c.66895,2.09577,1.21724,4.29009,1.82615,6.55465h.18635c.51545-2.18866,1.03089-4.38185,1.60695-6.55465l2.80719-9.9532h6.56315l-8.03019,23.382c-2.19432,5.79451-4.66279,8.79429-10.09933,8.79429A10.63129,10.63129,0,0,1,400.37705,992.919Zm32.96585-20.13523c0-7.504,5.35384-12.13392,10.91045-12.13392,6.58864,0,9.85238,4.78968,9.85238,11.103a15.49631,15.49631,0,0,1-.28548,3.0281H439.98252c.61457,3.3555,2.912,4.89617,5.999,4.89617a9.65755,9.65755,0,0,0,5.00209-1.51349l2.26626,4.1315a15.0556,15.0556,0,0,1-8.20635,2.60555C438.44978,984.90066,433.3429,980.44064,433.3429,972.78372Zm14.9077-2.53531c0-2.54324-1.10735-4.37392-3.84375-4.37392-2.16543,0-4.0352,1.45231-4.50136,4.37392Zm8.45784-8.775,3.46142-.264H485.536v5.37763H456.70844Zm3.07681-1.29824c0-4.73984,2.46848-8.59038,8.76144-8.59038a13.17916,13.17916,0,0,1,4.78912.8383l-1.23424,5.05363a6.12917,6.12917,0,0,0-2.7262-.51544c-1.56786,0-2.73639.99237-2.73639,3.1697V984.341h-6.85373Zm14.73438-.16427c0-4.88257,2.26569-8.89285,8.50938-8.89285a13.39268,13.39268,0,0,1,4.61409.82245l-1.23481,5.05363a6.65237,6.65237,0,0,0-2.3971-.49845c-1.67208,0-2.63783.921-2.63783,3.317V984.341h-6.85373Zm12.8969,12.77285c0-7.6909,5.41388-12.13392,11.2673-12.13392,5.85285,0,11.26673,4.443,11.26673,12.13392,0,7.67391-5.41388,12.11694-11.26673,12.11694C492.83041,984.90066,487.41653,980.45763,487.41653,972.78372Zm15.51038,0c0-4.00348-1.4087-6.60223-4.24308-6.60223-2.83495,0-4.24365,2.59875-4.24365,6.60223s1.4087,6.58524,4.24365,6.58524C501.51821,979.369,502.92691,976.78721,502.92691,972.78372Zm11.70457-11.5743h5.59117l.49392,4.04314h.17049c1.684-3.08815,4.2125-4.60276,6.57108-4.60276a6.43577,6.43577,0,0,1,2.75962.46673l-1.14134,5.91573a9.38931,9.38931,0,0,0-2.49623-.37384c-1.744,0-3.86131,1.12492-5.095,4.27763v13.405h-6.85373Zm19.47988,14.72135v-9.34372h-3.15952v-5.11367l3.54355-.264.80092-6.14229h5.66877v6.14229h5.54472v5.37763h-5.54472v9.261c0,2.62254,1.19062,3.67495,2.99412,3.67495a6.89615,6.89615,0,0,0,2.19942-.43841l1.08073,4.9766a16.29677,16.29677,0,0,1-5.14029.83944C536.38271,984.90066,534.11136,981.29027,534.11136,975.93077Zm16.92586,1.22235V951.67765H557.891v25.75528c0,1.47043.68027,1.936,1.2399,1.936a2.99876,2.99876,0,0,0,.83887-.09289l.81792,5.05363a8.85728,8.85728,0,0,1-3.44046.571C552.64473,984.90066,551.03722,981.83291,551.03722,977.15312Zm11.98836-4.3694c0-7.504,5.35383-12.13392,10.91045-12.13392,6.58864,0,9.85237,4.78968,9.85237,11.103a15.49631,15.49631,0,0,1-.28548,3.0281H569.6652c.61457,3.3555,2.912,4.89617,5.999,4.89617a9.65751,9.65751,0,0,0,5.00208-1.51349l2.26627,4.1315a15.0556,15.0556,0,0,1-8.20635,2.60555C568.13245,984.90066,563.02558,980.44064,563.02558,972.78372Zm14.9077-2.53531c0-2.54324-1.10736-4.37392-3.84375-4.37392-2.16544,0-4.0352,1.45231-4.50137,4.37392Zm8.536,11.42137,3.08418-4.26857a10.0212,10.0212,0,0,0,5.96727,2.42882c2.03913,0,2.92218-.77826,2.92218-1.98928,0-1.52481-2.29288-2.21471-4.673-3.147-2.83552-1.09772-6.12078-2.97938-6.12078-6.80274,0-4.306,3.49994-7.24116,8.83735-7.24116a13.15753,13.15753,0,0,1,8.152,2.92954l-3.06718,4.11563a8.59834,8.59834,0,0,0-4.87068-1.97455c-1.77064,0-2.64236.6933-2.64236,1.84768,0,1.475,2.166,2.03912,4.56311,2.91141,2.929,1.083,6.23065,2.7313,6.23065,6.96022,0,4.18587-3.30281,7.46093-9.50175,7.46093A15.00708,15.00708,0,0,1,586.46928,981.66978Zm20.65067,0,3.08361-4.26857a10.02123,10.02123,0,0,0,5.96728,2.42882c2.03912,0,2.92218-.77826,2.92218-1.98928,0-1.52481-2.29289-2.21471-4.673-3.147-2.83551-1.09772-6.12077-2.97938-6.12077-6.80274,0-4.306,3.49993-7.24116,8.83734-7.24116a13.15758,13.15758,0,0,1,8.152,2.92954l-3.06719,4.11563a8.59829,8.59829,0,0,0-4.87067-1.97455c-1.77064,0-2.64237.6933-2.64237,1.84768,0,1.475,2.166,2.03912,4.56311,2.91141,2.929,1.083,6.23066,2.7313,6.23066,6.96022,0,4.18587-3.30282,7.46093-9.50176,7.46093A15.00411,15.00411,0,0,1,607.12,981.66978Zm22.69546-4.51666V951.67765h6.85373v25.75528c0,1.47043.68027,1.936,1.2399,1.936a2.99876,2.99876,0,0,0,.83887-.09289l.81792,5.05363a8.85728,8.85728,0,0,1-3.44046.571C631.42292,984.90066,629.81541,981.83291,629.81541,977.15312ZM642.44666,992.919l1.21781-5.22356a6.93451,6.93451,0,0,0,1.55767.29567,3.96118,3.96118,0,0,0,4.04709-3.03716l.34552-1.20535-8.924-22.53913h6.88657l3.30622,9.9532c.66895,2.09577,1.21724,4.29009,1.82615,6.55465h.18635c.51545-2.18866,1.03089-4.38185,1.60695-6.55465l2.80719-9.9532h6.56315l-8.03019,23.382c-2.19432,5.79451-4.66279,8.79429-10.09933,8.79429A10.63129,10.63129,0,0,1,642.44666,992.919Z" transform="translate(-35.17849 -24.36209)"/><rect class="cls-3" x="252.15744" y="423.10131" width="285.9126" height="280.12824" rx="16"/><rect class="cls-4" x="278.3357" y="459.75089" width="45.07398" height="47.62533" rx="3.26117"/><rect class="cls-5" x="278.3357" y="468.25541" width="56.98031" height="45.07398" rx="4.61303"/><path class="cls-4" d="M322.9746,484.30769h16.1072a.53962.53962,0,0,1,.53962.53962v11.89018a.53962.53962,0,0,1-.53962.53962H322.9746a2.26549,2.26549,0,0,1-2.26549-2.26549v-8.43844a2.26549,2.26549,0,0,1,2.26549-2.26549Z"/><rect class="cls-4" x="285.35193" y="480.16174" width="24.52511" height="5.74055"/><path class="cls-6" d="M311.60957,588.7005c0-6.08771,3.58762-9.79972,8.37645-9.79972a7.0352,7.0352,0,0,1,5.19214,2.3282l-1.31626,1.56373a5.1336,5.1336,0,0,0-3.83307-1.78043c-3.56755,0-5.93789,2.92212-5.93789,7.62468,0,4.74469,2.26466,7.71831,5.84291,7.71831a5.66615,5.66615,0,0,0,4.37617-2.11952l1.31626,1.5062a7.27939,7.27939,0,0,1-5.79142,2.72482C315.133,598.46677,311.60957,594.83034,311.60957,588.7005Z" transform="translate(-35.17849 -24.36209)"/><path class="cls-6" d="M328.65073,590.32709v-11.0812h2.40111v11.14742c0,4.536,1.91687,5.962,4.38218,5.962,2.50143,0,4.47582-1.426,4.47582-5.962V579.24589H342.212v11.0812c0,6.05761-2.92547,8.13968-6.77794,8.13968S328.65073,596.3847,328.65073,590.32709Z" transform="translate(-35.17849 -24.36209)"/><path class="cls-6" d="M347.2817,579.24589h5.91248c3.84444,0,6.60538,1.38047,6.60538,5.31253,0,3.77021-2.76094,5.58475-6.60538,5.58475h-3.51v7.97849H347.2817Zm5.56736,8.949c2.93751,0,4.5534-1.18985,4.5534-3.63644,0-2.4827-1.61589-3.36422-4.5534-3.36422h-3.16491v7.00066Zm-.12842,1.29084,1.88209-1.24335,5.75864,9.87931h-2.72214Z" transform="translate(-35.17849 -24.36209)"/><path class="cls-6" d="M363.648,579.24589h5.91247c3.84445,0,6.60538,1.38047,6.60538,5.31253,0,3.77021-2.76093,5.58475-6.60538,5.58475h-3.51v7.97849H363.648Zm5.56736,8.949c2.9375,0,4.5534-1.18985,4.5534-3.63644,0-2.4827-1.6159-3.36422-4.5534-3.36422h-3.16491v7.00066Zm-.12842,1.29084,1.88209-1.24335,5.75864,9.87931h-2.72214Z" transform="translate(-35.17849 -24.36209)"/><path class="cls-6" d="M380.01432,579.24589h10.88055v2.03325h-8.47811v5.91448h7.15115v2.03258h-7.15115v6.86221h8.76571v2.03325H380.01432Z" transform="translate(-35.17849 -24.36209)"/><path class="cls-6" d="M395.17272,579.24589h2.48136l6.83145,11.86641,2.03726,3.90865h.115c-.12039-1.90416-.305-4.03238-.305-6.00543v-9.76963h2.28072v18.87577h-2.48l-6.83278-11.87711-2.03726-3.89729h-.115c.12172,1.91019.30632,3.9227.30632,5.89642v9.878h-2.282Z" transform="translate(-35.17849 -24.36209)"/><path class="cls-6" d="M417.71368,581.27914h-5.70915v-2.03325h13.82208v2.03325h-5.71049v16.84252h-2.40244Z" transform="translate(-35.17849 -24.36209)"/><path class="cls-6" d="M434.95482,579.24589h5.60347c3.83909,0,6.493,1.30489,6.493,4.623a4.13363,4.13363,0,0,1-2.75826,4.09926v.115a4.35441,4.35441,0,0,1,3.83909,4.51662c0,3.70867-2.93617,5.52188-7.14446,5.52188h-6.03286Zm5.19816,8.032c3.209,0,4.53869-1.18383,4.53869-3.09736,0-2.20514-1.51156-3.02847-4.43034-3.02847h-2.90407v6.12583Zm.48958,8.9376c3.22778,0,5.12994-1.16243,5.12994-3.70667,0-2.32552-1.82858-3.3883-5.12994-3.3883h-3.2853v7.095Z" transform="translate(-35.17849 -24.36209)"/><path class="cls-6" d="M455.75013,579.24589h2.71011l6.386,18.87577H462.302l-3.292-10.54213c-.67819-2.11016-1.28415-4.1822-1.88878-6.36058h-.115c-.58456,2.18841-1.19052,4.25042-1.86872,6.36058l-3.32811,10.54213h-2.44391Zm-3.02847,11.20895h8.69214v1.91687h-8.69214Z" transform="translate(-35.17849 -24.36209)"/><path class="cls-6" d="M467.40118,579.24589h2.40244v16.84252h8.23867v2.03325H467.40118Z" transform="translate(-35.17849 -24.36209)"/><path class="cls-6" d="M485.3486,579.24589h2.71011l6.386,18.87577h-2.54423l-3.292-10.54213c-.6782-2.11016-1.28416-4.1822-1.88878-6.36058h-.115c-.58456,2.18841-1.19052,4.25042-1.86872,6.36058l-3.3281,10.54213h-2.44391Zm-3.02847,11.20895h8.69214v1.91687h-8.69214Z" transform="translate(-35.17849 -24.36209)"/><path class="cls-6" d="M496.99965,579.24589H499.481l6.83145,11.86641,2.03726,3.90865h.115c-.12039-1.90416-.305-4.03238-.305-6.00543v-9.76963h2.28072v18.87577h-2.48l-6.83278-11.87711-2.03727-3.89729h-.115c.12172,1.91019.30632,3.9227.30632,5.89642v9.878h-2.28205Z" transform="translate(-35.17849 -24.36209)"/><path class="cls-6" d="M514.515,588.7005c0-6.08771,3.58761-9.79972,8.37644-9.79972a7.03483,7.03483,0,0,1,5.19147,2.3282l-1.31626,1.56373a5.13213,5.13213,0,0,0-3.8324-1.78043c-3.56755,0-5.93789,2.92212-5.93789,7.62468,0,4.74469,2.26467,7.71831,5.84292,7.71831a5.66479,5.66479,0,0,0,4.37549-2.11952l1.31626,1.5062a7.279,7.279,0,0,1-5.79074,2.72482C518.03841,598.46677,514.515,594.83034,514.515,588.7005Z" transform="translate(-35.17849 -24.36209)"/><path class="cls-6" d="M532.03572,579.24589h10.88055v2.03325h-8.47811v5.91448h7.15115v2.03258h-7.15115v6.86221h8.76571v2.03325H532.03572Z" transform="translate(-35.17849 -24.36209)"/><path class="cls-7" d="M358.2939,656.91617c0-1.88667.16361-4.86241.26587-6.74908h-.20452c-.81551,1.69238-1.73329,3.303-2.6485,5.03625l-5.89267,9.05246h18.064v4.54541H344.00322v-3.99577l12.84371-20.10153h6.95361v32.43651H358.2939Z" transform="translate(-35.17849 -24.36209)"/><path class="cls-7" d="M371.1734,673.7352c8.99111-8.74569,14.6588-14.43384,14.6588-19.38828,0-3.41545-1.87645-5.58589-5.36347-5.58589-2.5079,0-4.58631,1.65148-6.3196,3.588l-3.26206-3.22116c2.95528-3.2007,5.93357-5.03625,10.35627-5.03625,6.19944,0,10.25656,3.93441,10.25656,9.94979,0,5.76868-5.343,11.70225-11.80578,18.45005,1.71283-.16233,3.8526-.326,5.44272-.326h7.93273v4.9749H371.1734Z" transform="translate(-35.17849 -24.36209)"/><path class="cls-7" d="M397.74792,683.19542c3.33363-1.28463,5.19986-3.60846,5.16918-6.3196l-.28632-4.4048,2.25225,3.64042a3.30887,3.30887,0,0,1-2.42609.90626,3.55705,3.55705,0,0,1-3.79125-3.60845,3.6535,3.6535,0,0,1,3.914-3.60846c2.79422,0,4.38435,2.26247,4.38435,6.03455,0,4.99534-2.89649,8.84922-7.93018,10.60168Z" transform="translate(-35.17849 -24.36209)"/><path class="cls-7" d="M410.60441,673.1651l2.79422-3.75162a10.74742,10.74742,0,0,0,7.68731,3.5471c3.54583,0,5.99237-1.83426,5.99237-4.89308,0-3.34387-2.15-5.50408-9.5203-5.50408v-4.28209c6.34,0,8.421-2.20112,8.421-5.17814,0-2.71113-1.80487-4.34216-4.79083-4.34216-2.5079,0-4.52751,1.20282-6.48577,3.05754l-3.03708-3.62891a14.36688,14.36688,0,0,1,9.76572-4.098c6.19944,0,10.45852,3.09845,10.45852,8.57313,0,3.61868-2.13977,6.06523-5.64725,7.45211v.20324c3.83471.99958,6.74909,3.75162,6.74909,8.07334,0,5.91312-5.159,9.358-11.39675,9.358C416.36414,677.75141,412.8899,675.73308,410.60441,673.1651Z" transform="translate(-35.17849 -24.36209)"/><path class="cls-7" d="M439.3008,672.34959h7.25782V651.06441h-5.99237v-3.69027a20.88169,20.88169,0,0,0,7.48279-2.67023h4.3818v27.64568h6.38095v4.79083h-19.511Z" transform="translate(-35.17849 -24.36209)"/><path class="cls-7" d="M476.90905,656.91617c0-1.88667.16361-4.86241.26587-6.74908h-.20452c-.81551,1.69238-1.73328,3.303-2.6485,5.03625l-5.89267,9.05246h18.064v4.54541H462.61837v-3.99577l12.84372-20.10153h6.9536v32.43651h-5.50664Z" transform="translate(-35.17849 -24.36209)"/><path class="cls-6" d="M313.911,673.7761l2.63061-3.99577c2.38519,1.91608,4.81128,3.18025,7.5646,3.18025,3.32341,0,4.91353-1.6208,4.91353-4.36261,0-6.72864-13.84329-5.80064-13.84329-15.35161,0-5.52582,3.92419-9.15473,9.84753-9.15473a11.82518,11.82518,0,0,1,9.14194,4.11848l-3.00641,3.40522c-1.87645-1.75374-3.4359-2.73287-5.87221-2.73287-2.78144,0-4.44315,1.46869-4.44315,4.07757,0,6.11636,13.84329,4.89309,13.84329,15.23018,0,5.64724-3.87561,9.5612-10.58123,9.5612A16.17865,16.17865,0,0,1,313.911,673.7761Zm8.82749-34.67981h4.03667v6.95232h-4.03667Zm0,36.37219h4.03667v7.27828h-4.03667Z" transform="translate(-35.17849 -24.36209)"/><rect class="cls-3" width="389.11431" height="283.86521" rx="16"/><rect class="cls-8" x="24.58827" y="16.44972" width="339.93777" height="250.96578" rx="16"/><circle class="cls-7" cx="194.55716" cy="95.07981" r="50.66756"/><line class="cls-9" x1="194.55716" y1="69.16141" x2="194.55716" y2="120.99821"/><line class="cls-9" x1="168.63876" y1="95.07981" x2="220.47555" y2="95.07981"/><path class="cls-6" d="M102.59256,228.30982h3.70464l6.31631,11.42618,2.10134,4.3393h.12433c-.17421-2.10134-.46046-4.67543-.46046-6.938v-8.82751h3.4314V248.638h-3.70464l-6.31631-11.445-2.10134-4.32051h-.12433c.17421,2.15122.46046,4.60026.46046,6.86352v8.902h-3.4314Z" transform="translate(-35.17849 -24.36209)"/><path class="cls-6" d="M122.98649,228.30982H135.2201v3.03382h-8.628v5.20962h7.31024v3.03311h-7.31024v6.01777h8.93884V248.638H122.98649Z" transform="translate(-35.17849 -24.36209)"/><path class="cls-6" d="M137.685,228.30982h3.70535l1.76522,10.26961c.32962,2.16351.67731,4.327,1.00694,6.49052h.12433c.42287-2.16351.87032-4.34581,1.31776-6.49052l2.49964-10.26961h3.13285l2.49892,10.26961c.44744,2.10785.89561,4.30822,1.34306,6.49052h.12433c.32963-2.1823.65274-4.3646.98236-6.49052l1.76522-10.26961h3.45669L157.50357,248.638h-4.46363l-2.52422-10.70476c-.3354-1.57944-.63394-3.13358-.89489-4.67471h-.12433c-.27975,1.54113-.58407,3.09527-.9202,4.67471L146.115,248.638H141.7258Z" transform="translate(-35.17849 -24.36209)"/><path class="cls-6" d="M174.90271,231.34364h-5.86887v-3.03382h15.34261v3.03382h-5.86814V248.638h-3.6056Z" transform="translate(-35.17849 -24.36209)"/><path class="cls-6" d="M187.77387,228.30982h6.85051c4.22726,0,7.48444,1.492,7.48444,6.03006,0,4.37038-3.25718,6.35318-7.48444,6.35318h-3.2449v7.9449h-3.60561Zm6.47751,9.499c2.78517,0,4.30172-1.15657,4.30172-3.469,0-2.33772-1.51655-3.14587-4.30172-3.14587h-2.8719v6.61485Zm-.305,1.92063,2.611-2.15049,6.3474,11.059h-4.053Z" transform="translate(-35.17849 -24.36209)"/><path class="cls-6" d="M209.9706,228.30982h4.22726l6.62642,20.32814H217.0076l-3.096-10.81681c-.64623-2.15122-1.24331-4.46941-1.84039-6.70159h-.12433c-.55949,2.25025-1.15585,4.55037-1.8028,6.70159L207.02352,248.638h-3.68006Zm-2.71071,11.99145h9.5735v2.82853h-9.5735Z" transform="translate(-35.17849 -24.36209)"/><path class="cls-6" d="M223.1526,228.30982h3.70463l6.31632,11.42618,2.10134,4.3393h.12433c-.17421-2.10134-.46046-4.67543-.46046-6.938v-8.82751h3.4314V248.638h-3.70464l-6.31631-11.445-2.10134-4.32051h-.12433c.1742,2.15122.46045,4.60026.46045,6.86352v8.902H223.1526Z" transform="translate(-35.17849 -24.36209)"/><path class="cls-6" d="M242.15358,246.03352l2.10134-2.47434a7.98154,7.98154,0,0,0,5.29637,2.31892c2.28784,0,3.54344-1.03874,3.54344-2.624,0-1.672-1.31126-2.20688-3.15816-2.98974l-2.77866-1.20644c-2.00158-.83273-4.10871-2.418-4.10871-5.38961,0-3.2384,2.85962-5.73153,6.8252-5.73153a8.91046,8.91046,0,0,1,6.26644,2.59216l-1.85268,2.28784a6.54582,6.54582,0,0,0-4.41376-1.74714c-1.92713,0-3.18273.9014-3.18273,2.38759,0,1.59751,1.54836,2.18809,3.23261,2.87841l2.74179,1.15007c2.418,1.00694,4.10871,2.53578,4.10871,5.48286,0,3.29477-2.73528,6.04235-7.298,6.04235A10.473,10.473,0,0,1,242.15358,246.03352Z" transform="translate(-35.17849 -24.36209)"/><path class="cls-6" d="M264.46814,228.30982h4.22726l6.62642,20.32814h-3.81668l-3.096-10.81681c-.64624-2.15122-1.24332-4.46941-1.84039-6.70159h-.12434c-.55949,2.25025-1.15584,4.55037-1.8028,6.70159L261.52105,248.638h-3.68Zm-2.71071,11.99145h9.5735v2.82853h-9.5735Z" transform="translate(-35.17849 -24.36209)"/><path class="cls-6" d="M276.4567,238.54256c0-6.65172,4.16509-10.60574,9.31255-10.60574a8.08138,8.08138,0,0,1,5.85585,2.57337l-1.92713,2.32543a5.307,5.307,0,0,0-3.85427-1.76594c-3.30706,0-5.68164,2.79745-5.68164,7.36084,0,4.63712,2.18808,7.44758,5.5949,7.44758a5.72155,5.72155,0,0,0,4.3393-2.089l1.92714,2.26254a8.10742,8.10742,0,0,1-6.40306,2.95937C280.51047,249.011,276.4567,245.26873,276.4567,238.54256Z" transform="translate(-35.17849 -24.36209)"/><path class="cls-6" d="M299.06979,231.34364h-5.86886v-3.03382h15.34261v3.03382H302.6754V248.638h-3.60561Z" transform="translate(-35.17849 -24.36209)"/><path class="cls-6" d="M311.941,228.30982h3.6056V248.638H311.941Z" transform="translate(-35.17849 -24.36209)"/><path class="cls-6" d="M319.63793,238.39293c0-6.57726,3.66777-10.45611,8.96485-10.45611,5.29637,0,8.96414,3.89764,8.96414,10.45611,0,6.57727-3.66777,10.618-8.96414,10.618C323.3057,249.011,319.63793,244.9702,319.63793,238.39293Zm14.22363,0c0-4.56266-2.06375-7.32325-5.25878-7.32325-3.19574,0-5.25949,2.76059-5.25949,7.32325,0,4.56339,2.06375,7.48517,5.25949,7.48517C331.79781,245.8781,333.86156,242.95632,333.86156,238.39293Z" transform="translate(-35.17849 -24.36209)"/><path class="cls-6" d="M341.66117,228.30982h3.70464l6.31631,11.42618,2.10134,4.3393h.12433c-.17421-2.10134-.46046-4.67543-.46046-6.938v-8.82751h3.4314V248.638h-3.70464l-6.31631-11.445-2.10134-4.32051h-.12433c.17421,2.15122.46046,4.60026.46046,6.86352v8.902h-3.4314Z" transform="translate(-35.17849 -24.36209)"/><rect class="cls-3" x="779.2948" y="444.00384" width="305.5389" height="299.35748" rx="16"/><path class="cls-6" d="M842.14693,721.32772h6.41455c4.12,0,7.149,1.26351,7.149,4.94282a4.49963,4.49963,0,0,1-2.78372,4.341v.12265a4.59131,4.59131,0,0,1,3.85186,4.75886c0,4.01016-3.28713,5.88689-7.7023,5.88689h-6.92937Zm6.0951,8.27844c2.79656,0,3.98592-1.09167,3.98592-2.83292,0-1.93806-1.312-2.67392-3.91176-2.67392H845.7036v5.50684Zm.46633,9.00219c2.94345,0,4.58631-1.05459,4.58631-3.31138,0-2.1099-1.59437-3.02973-4.58631-3.02973H845.7036v6.34111Z" transform="translate(-35.17849 -24.36209)"/><path class="cls-6" d="M864.37966,721.32772h4.16988L875.08673,741.38h-3.7663l-3.05326-10.67c-.63746-2.122-1.22643-4.40875-1.81541-6.61063h-.12264c-.5519,2.21971-1.14087,4.48861-1.77833,6.61063l-3.0775,10.67h-3.63083Zm-2.67392,11.82869h9.44356v2.79014h-9.44356Z" transform="translate(-35.17849 -24.36209)"/><path class="cls-6" d="M877.38273,721.32772h3.65507l6.22916,11.27109,2.07353,4.28041h.12264c-.17255-2.07283-.45349-4.612-.45349-6.84381v-8.70769h3.38411V741.38h-3.65507l-6.22916-11.28963-2.07353-4.26187h-.12264c.17255,2.122.45349,4.53782.45349,6.77036V741.38h-3.38411Z" transform="translate(-35.17849 -24.36209)"/><path class="cls-6" d="M897.49914,721.32772h3.55667v9.1127h.0984l7.13757-9.1127h3.94884l-6.16926,7.82495L913.2831,741.38h-3.9246l-5.42056-9.43144-2.88213,3.58162V741.38h-3.55667Z" transform="translate(-35.17849 -24.36209)"/><path class="cls-6" d="M925.86548,721.32772h4.16988L936.57255,741.38h-3.7663L929.753,730.71c-.63747-2.122-1.22644-4.40875-1.81542-6.61063h-.12264c-.5519,2.21971-1.14087,4.48861-1.77833,6.61063l-3.0775,10.67h-3.63082Zm-2.67392,11.82869h9.44356v2.79014h-9.44356Z" transform="translate(-35.17849 -24.36209)"/><path class="cls-6" d="M937.69061,731.42157c0-6.56143,4.10856-10.46179,9.18686-10.46179a7.9713,7.9713,0,0,1,5.77566,2.53844l-1.901,2.29387a5.235,5.235,0,0,0-3.802-1.742c-3.26146,0-5.60453,2.75948-5.60453,7.26093,0,4.57418,2.1591,7.3465,5.519,7.3465a5.64129,5.64129,0,0,0,4.27969-2.0607l1.901,2.23183a7.99431,7.99431,0,0,1-6.31615,2.9192C941.68936,741.74788,937.69061,738.05645,937.69061,731.42157Z" transform="translate(-35.17849 -24.36209)"/><path class="cls-6" d="M954.34162,731.42157c0-6.56143,4.10856-10.46179,9.18687-10.46179a7.97133,7.97133,0,0,1,5.77566,2.53844l-1.901,2.29387a5.235,5.235,0,0,0-3.802-1.742c-3.26147,0-5.60453,2.75948-5.60453,7.26093,0,4.57418,2.1591,7.3465,5.519,7.3465a5.64128,5.64128,0,0,0,4.27969-2.0607l1.901,2.23183a7.9943,7.9943,0,0,1-6.31615,2.9192C958.34037,741.74788,954.34162,738.05645,954.34162,731.42157Z" transform="translate(-35.17849 -24.36209)"/><path class="cls-6" d="M970.99406,731.274c0-6.488,3.618-10.31419,8.84318-10.31419,5.22376,0,8.84175,3.84474,8.84175,10.31419,0,6.488-3.618,10.47391-8.84175,10.47391C974.61205,741.74788,970.99406,737.762,970.99406,731.274Zm14.03129,0c0-4.50073-2.03646-7.22385-5.18811-7.22385s-5.18811,2.72312-5.18811,7.22385c0,4.50145,2.03645,7.38358,5.18811,7.38358S985.02535,735.77542,985.02535,731.274Z" transform="translate(-35.17849 -24.36209)"/><path class="cls-6" d="M992.6207,732.58669v-11.259h3.55666v11.5285c0,4.366,1.63145,5.80133,4.06008,5.80133,2.45287,0,4.14421-1.43536,4.14421-5.80133v-11.5285h3.42262v11.259c0,6.58568-2.91921,9.16119-7.56683,9.16119C995.58839,741.74788,992.6207,739.17237,992.6207,732.58669Z" transform="translate(-35.17849 -24.36209)"/><path class="cls-6" d="M1012.80556,721.32772h3.65507l6.22915,11.27109,2.07354,4.28041h.12264c-.17256-2.07283-.4535-4.612-.4535-6.84381v-8.70769h3.38411V741.38h-3.65506l-6.22916-11.28963-2.07353-4.26187h-.12265c.17256,2.122.4535,4.53782.4535,6.77036V741.38h-3.38411Z" transform="translate(-35.17849 -24.36209)"/><path class="cls-6" d="M1036.96921,724.32036h-5.78849v-2.99264h15.13365v2.99264h-5.78849V741.38h-3.55667Z" transform="translate(-35.17849 -24.36209)"/><path class="cls-6" d="M1047.31121,738.81085l2.0721-2.44075a7.872,7.872,0,0,0,5.22519,2.28745c2.25608,0,3.49535-1.02465,3.49535-2.58835,0-1.64928-1.29489-2.17693-3.116-2.94916L1052.2469,731.93c-1.97371-.82142-4.05294-2.38513-4.05294-5.31646,0-3.19443,2.8208-5.65373,6.73256-5.65373a8.79249,8.79249,0,0,1,6.1821,2.557l-1.82825,2.25679a6.45692,6.45692,0,0,0-4.35385-1.72343c-1.901,0-3.13882.88917-3.13882,2.35519,0,1.57582,1.52592,2.15838,3.18874,2.83934l2.70386,1.13445c2.38585.99327,4.05294,2.50136,4.05294,5.40844,0,3.25006-2.69816,5.96034-7.19889,5.96034A10.32782,10.32782,0,0,1,1047.31121,738.81085Z" transform="translate(-35.17849 -24.36209)"/><path class="cls-6" d="M1064.78507,728.88242a2.28306,2.28306,0,1,1,2.28032,2.37943A2.29134,2.29134,0,0,1,1064.78507,728.88242Zm0,10.486a2.28306,2.28306,0,1,1,2.28032,2.37943A2.29134,2.29134,0,0,1,1064.78507,739.36845Z" transform="translate(-35.17849 -24.36209)"/><path class="cls-6" d="M1086.57429,729.214c0-1.13446.0984-2.92562.15972-4.06008h-.12264c-.49058,1.01823-1.04248,1.98726-1.59437,3.02973l-3.54383,5.44552h10.86537v2.73452h-14.36072V733.96l7.72655-12.09252h4.1813V741.38h-3.31138Z" transform="translate(-35.17849 -24.36209)"/><path class="cls-7" d="M940.64258,582.65332h9.11767v2.25195h-6.4414v4.28223h5.48193v2.25195h-5.48193v6.30274h-2.67627Z" transform="translate(-35.17849 -24.36209)"/><path class="cls-7" d="M951.38135,590.1377c0-4.88184,2.72217-7.76075,6.65381-7.76075s6.65429,2.89258,6.65429,7.76075c0,4.88183-2.72265,7.88183-6.65429,7.88183S951.38135,595.01953,951.38135,590.1377Zm10.55713,0c0-3.38672-1.53174-5.43555-3.90332-5.43555-2.37207,0-3.90381,2.04883-3.90381,5.43555s1.53174,5.55566,3.90381,5.55566C960.40674,595.69336,961.93848,593.52441,961.93848,590.1377Z" transform="translate(-35.17849 -24.36209)"/><path class="cls-7" d="M966.92676,590.1377c0-4.88184,2.72168-7.76075,6.65332-7.76075s6.6543,2.89258,6.6543,7.76075c0,4.88183-2.72266,7.88183-6.6543,7.88183S966.92676,595.01953,966.92676,590.1377Zm10.55762,0c0-3.38672-1.53223-5.43555-3.9043-5.43555-2.3711,0-3.90332,2.04883-3.90332,5.43555s1.53222,5.55566,3.90332,5.55566C975.95215,595.69336,977.48438,593.52441,977.48438,590.1377Z" transform="translate(-35.17849 -24.36209)"/><path class="cls-7" d="M983.26562,582.65332H987.29c4.62305,0,7.35449,2.49219,7.35449,7.48438,0,4.99316-2.73144,7.60449-7.2168,7.60449h-4.16211Zm3.84864,12.91992c3.03613,0,4.78027-1.72558,4.78027-5.43554s-1.74414-5.31543-4.78027-5.31543h-1.17188v10.751Z" transform="translate(-35.17849 -24.36209)"/><g class="cls-10"><path class="cls-11" d="M967.24306,591.493l-57.10918,78.604A97.15994,97.15994,0,0,1,888.639,534.38384c18.92432-26.04708,46.40807-40.05075,78.604-40.05075Z" transform="translate(-35.17849 -24.36209)"/><path class="cls-12" d="M967.24306,591.493l92.40458,30.02407A97.15992,97.15992,0,0,1,937.219,683.8976a92.36432,92.36432,0,0,1-27.08511-13.80055Z" transform="translate(-35.17849 -24.36209)"/><path class="cls-13" d="M967.24306,591.493l57.10917-78.604c34.72945,25.23242,48.56088,67.80119,35.29541,108.62811Z" transform="translate(-35.17849 -24.36209)"/><path class="cls-14" d="M967.24306,591.493V494.33309c21.464,0,39.74445,5.93968,57.10917,18.55589Z" transform="translate(-35.17849 -24.36209)"/></g><path class="cls-15" d="M1050.89019,586.6546l-6.5669,2.68659,4.7181,7.08926a1.44658,1.44658,0,0,1-2.40266,1.599l-4.7181-7.08926-5.01354,5.02053-.18075-1.22028-.18237-1.21921-.18075-1.22029-.17972-1.21881-.18236-1.21921-.18075-1.22029-.18238-1.21922-.17975-1.21877-.18075-1.22029-.18233-1.21924-.18075-1.22029-.17975-1.21878-.18238-1.21922-.18075-1.22028-.18237-1.21921-.17971-1.21881,1.05489.63635,1.05428.63893,1.05589.63786,1.0559.63786,1.05331.6374,1.0559.63785,1.0559.63786,1.05427.63893,1.05489.63635,1.05429.63894,1.05589.63785,1.05593.63783,1.05328.63743,1.05589.63786,1.05589.63785Z" transform="translate(-35.17849 -24.36209)"/></svg>