<svg id="Ñëîé_1" data-name="Ñëîé 1" xmlns="http://www.w3.org/2000/svg" viewBox="0 0 568.68324 383.41662"><defs><style>.cls-1{fill:#abd6f4;}.cls-2{fill:#d4ecff;}.cls-3{fill:#173d7a;}.cls-4{fill:#fff;}.cls-5{fill:#f9bf30;}.cls-6{fill:#efefef;}</style></defs><path class="cls-1" d="M560.89745,205.47223,427.373,128.15035c-7.253-4.201-19.93288-3.693-28.32146,1.13451L118.821,290.55786c-8.38855,4.82748-9.309,12.14661-2.05589,16.34757l133.52449,77.322c7.25295,4.20095,19.93288,3.693,28.32128-1.13468L558.84141,221.82C567.23,216.99232,568.15041,209.67319,560.89745,205.47223Z" transform="translate(-10.2742 -7.77654)"/><path class="cls-2" d="M571.60056,145.11372,432.64117,64.64383c-9.75811-5.65192-26.81765-4.96853-38.10331,1.52647L110.26964,229.76686c-11.28582,6.49484-12.52427,16.342-2.76615,21.9939L246.463,332.23064c9.75812,5.65192,26.8175,4.96854,38.10332-1.52646L568.83456,167.10762C580.12026,160.61262,581.35868,150.76564,571.60056,145.11372Z" transform="translate(-10.2742 -7.77654)"/><path class="cls-3" d="M263.06429,336.81811c-6.37026,0-12.45529-1.288-16.99134-3.91558L107.11418,252.43342c-4.49814-2.6063-6.97254-6.24132-6.96648-10.23721.00606-4.77125,3.55455-9.547,9.73512-13.1031L394.15088,65.49686c11.48141-6.60546,28.92015-7.29412,38.87993-1.52476l138.9603,80.46927h0c4.49814,2.60474,6.971,6.24132,6.96633,10.23566-.00746,4.76985-3.556,9.54715-9.7365,13.10465L284.9527,331.37793A45.09865,45.09865,0,0,1,263.06429,336.81811ZM416.0379,61.58578a43.4894,43.4894,0,0,0-21.11322,5.25827L110.65662,230.4403c-5.68455,3.27228-8.94937,7.558-8.95543,11.7573-.0045,3.418,2.19369,6.57517,6.19271,8.89174l138.9589,80.46911c9.52572,5.51769,26.27129,4.83338,37.32626-1.52771L568.44712,166.43449c5.6861-3.27228,8.95077-7.55961,8.95683-11.75886.00466-3.418-2.19509-6.57516-6.1927-8.89018L432.251,65.31634C427.93036,62.8132,422.12449,61.58578,416.0379,61.58578Z" transform="translate(-10.2742 -7.77654)"/><path class="cls-3" d="M578.15024,154.83906c-.08311,4.27521-3.21914,8.76-9.31568,12.26872L284.56635,330.70433c-11.28567,6.4947-28.3452,7.17808-38.10332,1.52616L107.50364,251.7606c-4.50357-2.60863-6.63559-6.11222-6.548-9.76573l-.02672-.03153-.05608,20.16357.03091-.01025c-.15129,3.70772,1.9762,7.272,6.54145,9.91672l138.95939,80.47c9.75843,5.65177,26.81781,4.96839,38.10332-1.5263l284.26852-163.597c6.37262-3.66749,9.53783-8.40378,9.33215-12.85034l.00311.00264.066-19.72362Z" transform="translate(-10.2742 -7.77654)"/><path class="cls-3" d="M263.00665,357.09089c-6.37025,0-12.45529-1.288-16.99133-3.91558L107.055,272.7062c-4.55284-2.63814-7.00736-6.32319-6.93465-10.3966a.67975.67975,0,0,1-.02424-.18347l.05608-20.16357a.77764.77764,0,0,1,1.3548-.51887.88945.88945,0,0,1,.226.56889c-.085,3.503,2.10265,6.72679,6.16086,9.07676l138.9589,80.46911c9.52572,5.51769,26.27129,4.83338,37.32626-1.52771L568.44712,166.43449c5.592-3.21775,8.84622-7.4504,8.92656-11.61019a.77556.77556,0,0,1,.18049-.48251c.00917-.01057.04552-.05158.05468-.06059a.77645.77645,0,0,1,1.34564.531l-.06525,19.72347c0,.01522,0,.032-.00155.04707.18207,4.90174-3.35726,9.80643-9.72441,13.47174L284.89507,351.65071A45.09863,45.09863,0,0,1,263.00665,357.09089Zm-161.357-95.17262a.68784.68784,0,0,1,.03031.23054c-.144,3.5575,2.0405,6.82994,6.15477,9.21331L246.795,351.83123c9.52744,5.52065,26.26989,4.838,37.32642-1.52771L568.38949,186.70727c5.88323-3.38615,9.14355-7.81143,8.94315-12.14117a.66949.66949,0,0,1,.00311-.12288l.04707-14.2864a21.50188,21.50188,0,0,1-8.16188,7.62486L284.9527,331.37793c-11.48278,6.6053-28.92015,7.29412-38.87975,1.5246L107.11418,252.43342a15.13115,15.13115,0,0,1-5.42355-5.00784Z" transform="translate(-10.2742 -7.77654)"/><path class="cls-1" d="M529.68575,163.98914,377.3702,76.0499,246.98858,151.96743l-7.29628,4.18464,151.78393,87.63274c5.80743,3.35275,15.95145,2.93253,22.65724-.93909l113.92561-65.77539C534.76505,173.19871,535.49317,167.34266,529.68575,163.98914Z" transform="translate(-10.2742 -7.77654)"/><path class="cls-4" d="M560.89745,148.28487,427.373,70.96283c-7.253-4.201-19.93288-3.693-28.32146,1.13467L118.821,233.37034c-8.38855,4.82764-9.309,12.14677-2.05589,16.34773L250.2896,327.03995c7.25295,4.201,19.93288,3.693,28.32128-1.13451l280.23053-161.273C567.23,159.805,568.15041,152.48583,560.89745,148.28487Z" transform="translate(-10.2742 -7.77654)"/><polygon class="cls-1" points="227.137 318.331 357.654 242.978 243.261 176.932 112.154 252.627 218.53 313.325 227.137 318.331"/><path class="cls-4" d="M560.89745,148.28487,427.373,70.96283c-7.253-4.201-19.93288-3.693-28.32146,1.13467L118.821,233.37034c-8.38855,4.82764-9.309,12.14677-2.05589,16.34773L250.2896,327.03995c7.25295,4.201,19.93288,3.693,28.32128-1.13451l280.23053-161.273C567.23,159.805,568.15041,152.48583,560.89745,148.28487Z" transform="translate(-10.2742 -7.77654)"/><ellipse class="cls-1" cx="477.76172" cy="333.41512" rx="38.90149" ry="22.4597"/><path class="cls-3" d="M521.76759,329.06447c-18.62887,10.75577-48.83283,10.75546-67.46233-.00031-9.31459-5.37773-13.97212-12.42609-13.97243-19.47445h0v7.78984c.00031,7.04883,4.65784,14.09672,13.97243,19.47445,18.6295,10.75576,48.83346,10.75607,67.46233.00077,9.31475-5.378,13.97181-12.42639,13.9715-19.47522V309.59C535.73925,316.63854,531.08218,323.68689,521.76759,329.06447Z" transform="translate(-10.2742 -7.77654)"/><path class="cls-3" d="M488.0372,345.67333c-12.35664,0-24.71326-2.7155-34.12078-8.14667-9.26022-5.34775-14.36065-12.50236-14.36065-20.147v-7.79015a.77675.77675,0,0,1,1.5535,0c0,7.06653,4.82422,13.74329,13.5839,18.80271,18.38715,10.615,48.30247,10.615,66.68651,0,8.75813-5.05786,13.58235-11.73463,13.58235-18.80271a.77675.77675,0,0,1,1.5535,0v7.79015c0,7.64614-5.09886,14.80075-14.3591,20.147C512.75049,342.95783,500.39385,345.67333,488.0372,345.67333Zm-46.92793-28.89886v.60524c0,7.06669,4.82422,13.74329,13.5839,18.80287,18.38855,10.61346,48.304,10.61346,66.68651,0,8.75813-5.058,13.58235-11.73479,13.58235-18.80287V316.776c-2.16029,4.8789-6.52638,9.336-12.8056,12.96033-18.81638,10.86234-49.42658,10.86234-68.24,0C447.63565,326.11065,443.26955,321.65337,441.10927,316.77447Z" transform="translate(-10.2742 -7.77654)"/><ellipse class="cls-2" cx="477.76176" cy="301.81321" rx="47.70306" ry="27.54135"/><path class="cls-3" d="M488.0372,337.88318c-12.35664,0-24.71326-2.71566-34.12078-8.14683-9.26022-5.34619-14.36065-12.50065-14.36065-20.14679s5.10043-14.8006,14.36065-20.147c18.81188-10.86218,49.42363-10.86218,68.23846,0,9.26024,5.34635,14.36065,12.50236,14.36065,20.1485,0,7.646-5.09886,14.8006-14.3591,20.14524C512.74894,335.16752,500.39229,337.88318,488.0372,337.88318Zm-.0031-55.05643c-12.07438,0-24.14891,2.65336-33.34093,7.9601-8.75968,5.05786-13.5839,11.73618-13.5839,18.80271s4.82422,13.74485,13.5839,18.80271c18.38249,10.61347,48.30091,10.61347,66.68651,0h0c8.75813-5.05786,13.58235-11.73463,13.58235-18.80116,0-7.06808-4.82422-13.7464-13.5839-18.80426C512.18455,285.48011,500.10863,282.82675,488.0341,282.82675Z" transform="translate(-10.2742 -7.77654)"/><polygon class="cls-5" points="525.465 301.813 525.465 301.813 525.465 301.813 525.465 301.813"/><path class="cls-4" d="M471.82168,317.83333l3.00772-1.73634q-3.08384-1.95414-2.75854-3.974.32511-2.01985,4.16416-4.37526l5.46968,2.32029a8.33531,8.33531,0,0,0-2.85657,2.30415q-.52916.92416.54481,1.54339a3.0642,3.0642,0,0,0,3.21884-.23489,4.58378,4.58378,0,0,0,1.50256-1.2866,2.99691,2.99691,0,0,0,.56763-1.357,7.14784,7.14784,0,0,0-.06074-1.67559l-.30338-2.38974a7.82947,7.82947,0,0,1-.059-1.50146,4.87015,4.87015,0,0,1,.332-1.38742,4.02347,4.02347,0,0,1,1.01272-1.44724,9.70074,9.70074,0,0,1,1.88858-1.37033,12.42916,12.42916,0,0,1,6.257-1.69269,14.46441,14.46441,0,0,1,6.49762,1.5187l2.85563-1.64888,1.58628.91563-2.84041,1.64033a6.3973,6.3973,0,0,1,1.44444,1.23441,3.10689,3.10689,0,0,1,.657,1.1819,2.15658,2.15658,0,0,1-.03791,1.13933,3.44905,3.44905,0,0,1-.51451,1.05544,6.4516,6.4516,0,0,1-.90522.97668,11.30919,11.30919,0,0,1-1.08978.87291q-.52082.36236-1.18485.78079l-5.41082-2.40776q.61915-.37516,1.01272-.6287.39219-.25236.8007-.55817a3.30423,3.30423,0,0,0,.58953-.53254,1.44983,1.44983,0,0,0,.25679-.47071.48972.48972,0,0,0-.08373-.45828,1.59362,1.59362,0,0,0-.53627-.41463,2.77291,2.77291,0,0,0-1.7222-.28817,4.54227,4.54227,0,0,0-1.723.54978,4.84112,4.84112,0,0,0-1.11838.84619,2.03336,2.03336,0,0,0-.52105.99952,4.6259,4.6259,0,0,0-.11325.87679c-.00093.2091.02.54667.06,1.01179l.25772,2.31253a8.81437,8.81437,0,0,1,.00668,1.74022,6.28123,6.28123,0,0,1-.42317,1.64034,4.95087,4.95087,0,0,1-1.14026,1.66224,9.80665,9.80665,0,0,1-2.0559,1.5263,12.19994,12.19994,0,0,1-5.79484,1.55754,13.26068,13.26068,0,0,1-6.14407-1.22571l-3.03723,1.75358Z" transform="translate(-10.2742 -7.77654)"/><ellipse class="cls-1" cx="48.47965" cy="360.95685" rx="38.90133" ry="22.45976"/><path class="cls-3" d="M92.48556,356.60636c-18.62888,10.75561-48.833,10.7553-67.46249-.00047-9.31443-5.37773-13.972-12.42608-13.97228-19.47444h0v7.78984c.00032,7.04882,4.65785,14.09671,13.97244,19.47444,18.62934,10.75577,48.83345,10.75608,67.46233.00078,9.31459-5.378,13.97181-12.4264,13.97135-19.47522v-7.78937C106.45721,344.18027,101.80015,351.22863,92.48556,356.60636Z" transform="translate(-10.2742 -7.77654)"/><path class="cls-3" d="M58.75563,373.216c-12.35664,0-24.71327-2.71551-34.12078-8.14823C15.37463,359.72158,10.2742,352.567,10.2742,344.921v-7.78875a.77675.77675,0,0,1,1.5535,0c0,7.06808,4.82422,13.74469,13.5839,18.80115,18.38405,10.61363,48.30092,10.615,66.685.00156,8.75969-5.058,13.5839-11.73618,13.5839-18.80271a.77675.77675,0,0,1,1.5535,0V344.921c0,7.646-5.10042,14.80215-14.36065,20.14834C83.46737,370.50049,71.11072,373.21445,58.75563,373.216ZM11.8277,344.31869v.60229c0,7.06653,4.82422,13.74469,13.5839,18.80271,18.38405,10.615,48.30092,10.61347,66.685.00155,8.75969-5.058,13.5839-11.73618,13.5839-18.80426v-.60385c-2.16028,4.87891-6.52638,9.33619-12.80715,12.96189h0c-18.81188,10.86234-49.42363,10.86389-68.23846-.0014C18.35408,353.65332,13.988,349.196,11.8277,344.31869ZM92.48493,356.607h0Z" transform="translate(-10.2742 -7.77654)"/><ellipse class="cls-2" cx="48.47964" cy="329.35494" rx="47.703" ry="27.54139"/><path class="cls-3" d="M58.75563,365.42585c-12.35664,0-24.71327-2.71566-34.12078-8.14823-9.26022-5.34479-14.36065-12.50081-14.36065-20.14539,0-7.64614,5.09888-14.80216,14.3591-20.14835,18.81188-10.86234,49.42518-10.86389,68.24.0014,9.26023,5.34619,14.36065,12.50081,14.36065,20.147s-5.10042,14.8006-14.36065,20.14679h0C83.46737,362.71019,71.11072,365.42585,58.75563,365.42585Zm-.0031-55.058c-12.07593,0-24.14891,2.65337-33.34248,7.9601-8.75953,5.058-13.58235,11.73618-13.58235,18.80427,0,7.06653,4.82422,13.74329,13.5839,18.80115,18.38405,10.61363,48.30092,10.615,66.685.00156,8.75969-5.058,13.5839-11.73618,13.5839-18.80271s-4.82421-13.74485-13.5839-18.80272C82.90454,313.02278,70.82706,310.36786,58.75253,310.36786Z" transform="translate(-10.2742 -7.77654)"/><polygon class="cls-5" points="96.183 329.355 96.183 329.355 96.183 329.355 96.183 329.355"/><path class="cls-4" d="M42.53965,345.37506l3.00771-1.73634q-3.08383-1.95414-2.75869-3.974.32531-2.01961,4.16414-4.3751l5.4697,2.32014a8.33877,8.33877,0,0,0-2.85657,2.30414q-.5292.9244.545,1.5434a3.06426,3.06426,0,0,0,3.21884-.23489,4.584,4.584,0,0,0,1.50254-1.2866,2.99809,2.99809,0,0,0,.56764-1.357,7.14865,7.14865,0,0,0-.06089-1.6756l-.30325-2.38958a7.83466,7.83466,0,0,1-.059-1.50161,4.87513,4.87513,0,0,1,.33183-1.38743,4.02841,4.02841,0,0,1,1.01272-1.44723,9.70565,9.70565,0,0,1,1.88858-1.37034,12.43007,12.43007,0,0,1,6.25716-1.69268,14.46446,14.46446,0,0,1,6.49765,1.51869l2.85563-1.64888,1.58612.91579L72.566,329.5403a6.3868,6.3868,0,0,1,1.44444,1.23425,3.10675,3.10675,0,0,1,.65712,1.18206,2.15436,2.15436,0,0,1-.03806,1.13917,3.44834,3.44834,0,0,1-.51436,1.05545,6.44569,6.44569,0,0,1-.90537.97668,11.2725,11.2725,0,0,1-1.08977.87291q-.52059.36234-1.18486.78078l-5.41066-2.40776q.61893-.37516,1.01272-.62854.39217-.2526.80067-.55817a3.3149,3.3149,0,0,0,.58955-.53254,1.45849,1.45849,0,0,0,.25679-.47071.49032.49032,0,0,0-.08373-.45843,1.59362,1.59362,0,0,0-.53627-.41463,2.773,2.773,0,0,0-1.7222-.288,4.54017,4.54017,0,0,0-1.72313.54963,4.84461,4.84461,0,0,0-1.11821.84634,2.03321,2.03321,0,0,0-.5212.99936,4.63656,4.63656,0,0,0-.11309.87679c-.00093.20911.02.54668.06,1.0118l.25774,2.31268a8.81274,8.81274,0,0,1,.00651,1.74007,6.28107,6.28107,0,0,1-.42317,1.64033,4.94879,4.94879,0,0,1-1.14011,1.66224,9.801,9.801,0,0,1-2.05589,1.52631,12.2001,12.2001,0,0,1-5.795,1.55753,13.2584,13.2584,0,0,1-6.14391-1.2257l-3.03724,1.75358Z" transform="translate(-10.2742 -7.77654)"/><path class="cls-6" d="M529.68575,163.98914,384.76483,80.31983,246.33363,159.9864l145.1426,83.79841c5.80743,3.35275,15.95145,2.93253,22.65724-.93909l113.92561-65.77539C534.76505,173.19871,535.49317,167.34266,529.68575,163.98914Z" transform="translate(-10.2742 -7.77654)"/><path class="cls-3" d="M539.9371,149.94183l-5.32334-.84278L305.48259,16.81005c-6.11409-3.53015-16.79373-3.08725-23.85372.98849L161.68764,87.04661a15.782,15.782,0,0,0-3.29962,2.47891l-2.53686-.402-.00372,5.70645.01491.00233c-.00155,2.24371,1.34129,4.38582,4.11272,5.98639l230.327,132.97921c6.11408,3.53032,16.79373,3.08726,23.85358-.98833l119.94137-69.24807c3.89492-2.24915,5.86319-5.133,5.82871-7.86083l.01134.00233Z" transform="translate(-10.2742 -7.77654)"/><path class="cls-3" d="M400.65924,236.94089a21.912,21.912,0,0,1-10.74551-2.4713L159.587,101.49115c-2.846-1.643-4.43894-3.94743-4.4997-6.5037a.78918.78918,0,0,1-.01662-.15783l.00295-5.70568a.77916.77916,0,0,1,.89823-.76773l2.15425.34146a16.97684,16.97684,0,0,1,3.17378-2.32419L281.24049,17.12619c7.26536-4.19319,18.31272-4.63625,24.62985-.98771L534.87706,148.35384l5.1809.82087a.77737.77737,0,0,1,.65542.76758v5.76036a.71969.71969,0,0,1-.01072.12738c-.02716,3.07825-2.28472,6.13366-6.21693,8.40316L414.54359,233.482A28.5263,28.5263,0,0,1,400.65924,236.94089ZM156.62418,94.68405a.69891.69891,0,0,1,.01524.14867c-.00155,2.039,1.32123,3.92615,3.72433,5.31435L390.69047,233.12551c5.8893,3.39982,16.24038,2.95677,23.07638-.98771L533.709,162.88911c3.4893-2.01628,5.4736-4.63174,5.44017-7.1773a.81834.81834,0,0,1,.01072-.1381v-4.96839l-4.66809-.73884a.76285.76285,0,0,1-.267-.09569L305.09359,17.48272c-5.88789-3.39827-16.24038-2.95537-23.07635.98755L162.07665,87.71912a15.0181,15.0181,0,0,0-3.13745,2.35448.77581.77581,0,0,1-.672.22l-1.64-.261Z" transform="translate(-10.2742 -7.77654)"/><path class="cls-2" d="M390.3021,227.90857,159.97507,94.9292c-6.11409-3.53-5.34728-9.69583,1.71273-13.77188L281.62887,11.90925c7.06-4.07606,17.73963-4.5188,23.85372-.9888L535.80946,143.89982c6.11409,3.53,5.34744,9.69582-1.71257,13.77188L414.15568,226.91977C407.09583,230.99583,396.41618,231.43857,390.3021,227.90857Z" transform="translate(-10.2742 -7.77654)"/><path class="cls-3" d="M400.65924,231.0516a21.912,21.912,0,0,1-10.74551-2.4713L159.587,95.60186c-2.9128-1.68088-4.51632-4.04452-4.51632-6.65393,0-3.09331,2.271-6.17762,6.22921-8.46234L281.24049,11.2369c7.26381-4.19475,18.30962-4.6378,24.62985-.98927l230.32812,132.98c2.9114,1.681,4.51492,4.04312,4.51492,6.65252,0,3.09332-2.26966,6.179-6.22765,8.46375L414.54359,227.59119A28.53179,28.53179,0,0,1,400.65924,231.0516ZM295.12482,9.30559A26.947,26.947,0,0,0,282.01724,12.581L162.07665,81.82983c-3.46508,2.001-5.45247,4.59523-5.45247,7.1181,0,2.03135,1.329,3.91714,3.73957,5.30985L390.69047,227.23622c5.89085,3.39982,16.24194,2.95676,23.07638-.98911L533.709,156.99981c3.46506-2.001,5.45089-4.59523,5.45089-7.11966,0-2.02995-1.32746-3.91573-3.73817-5.30829l-230.32812-132.98A20.34116,20.34116,0,0,0,295.12482,9.30559Z" transform="translate(-10.2742 -7.77654)"/><polygon class="cls-3" points="167.046 64.356 419.514 210.118 441.359 197.505 188.891 51.743 167.046 64.356"/><path class="cls-3" d="M429.78725,218.67072a.77343.77343,0,0,1-.38837-.10471L176.93192,72.80465a.77563.77563,0,0,1,0-1.34408l21.84447-12.61313a.77313.77313,0,0,1,.77674,0l252.4685,145.76292a.77577.77577,0,0,1,0,1.34423l-21.846,12.61142A.77422.77422,0,0,1,429.78725,218.67072ZM178.87379,72.13261,429.78725,216.99745l20.29251-11.715L199.16476,60.41616Z" transform="translate(-10.2742 -7.77654)"/><polygon class="cls-4" points="329.298 99.581 258.925 58.951 282.213 45.505 352.587 86.136 329.298 99.581"/><polygon class="cls-6" points="232.78 315.073 357.654 242.978 243.261 176.932 118.558 248.93 232.78 315.073"/><path class="cls-4" d="M37.737,271.42379l.02781.00155c-12.11073-6.726-19.67018-21.4612-19.73652-42.553-.13141-41.75559,29.12583-92.80184,65.22017-113.7928l26.04774-15.14812.00109-.00077.00015.00015h0l1.25554.70622L230.03282,167.83,199.763,187.50375l-11.3638,8.31383-15.64493,16.34509-2.51479,2.29435L153.58819,239.6797l-6.10632,15.79406-4.52812,12.55689-3.72108,26.342-.25618,2.27525,1.34393,11.10655,3.84117,13.75168,5.41859,9.31723,7.88382,9.35778Z" transform="translate(-10.2742 -7.77654)"/><path class="cls-3" d="M160.89318,343.04731,34.52781,270.47756l.25027.01367c-11.27044-7.72351-17.46624-22.35415-17.52683-41.61515-.132-42.00336,29.29936-93.35363,65.60777-114.4684l26.42912-15.3712,1.64453.92246,120.599,67.82274L200.1857,188.15451,188.85762,196.444l-15.54255,16.2556-2.4803,2.265-16.55139,25.07276-6.076,15.717-4.495,12.4643-3.955,28.42568,1.33352,11.01551L144.882,321.2013l5.37042,9.23148ZM40.945,272.371l113.09108,64.94489-5.05041-5.9926-5.57222-9.60759-3.84133-13.75245-1.37748-11.31286.26549-2.36364,3.76241-26.52015,4.52843-12.55689,6.18974-15.95811,16.77587-25.36871,2.51386-2.29389,15.60782-16.30858,11.466-8.40315L228.534,167.87877l-119.23064-67.0536-25.6645,14.92659C47.75971,136.61627,18.67425,187.36114,18.80475,228.87c.06369,20.11354,6.93153,34.98545,19.3382,41.87613l2.937,1.63241Z" transform="translate(-10.2742 -7.77654)"/><path class="cls-2" d="M246.82189,167.32154l.014,4.42186-79.28659,46.03779c1.34269-3.08011,3.88063-5.63406,6.47574-8.19593Z" transform="translate(-10.2742 -7.77654)"/><polygon class="cls-2" points="356.032 228.172 236.548 159.545 164.211 202.966 155.155 213.507 141.556 237.401 133.013 261.286 130.23 279.955 129.88 298.595 141.551 325.258 156.725 334.124 172.328 334.934 191.044 327.167 338.978 240.141 356.032 228.172"/><path class="cls-3" d="M182.60279,343.48726a.36044.36044,0,0,1-.041-.00156l-15.60329-.81014a.772.772,0,0,1-.3503-.10455l-15.17392-8.86595a.76825.76825,0,0,1-.32017-.35948l-11.67094-26.66276a.77606.77606,0,0,1-.06524-.32624l.34891-18.64037,2.793-18.76931,8.57917-24.02913,13.65521-24.01686,9.142-10.6652a.75768.75768,0,0,1,.18812-.15923L246.42342,166.656a.77842.77842,0,0,1,.78576-.00761l119.484,68.62683a.77744.77744,0,0,1,.05919,1.30928L349.6989,248.55279l-147.987,87.05934-18.81172,7.81594A.77049.77049,0,0,1,182.60279,343.48726Zm-15.37415-2.35292,15.239.79181,18.55244-7.70067L348.85846,247.248l16.00207-11.23393-118.029-67.7909-71.84007,43.12L166.018,221.79138l-13.51275,23.77125-8.48658,23.76053-2.74735,18.52355-.3368,18.36882,11.501,26.27594Z" transform="translate(-10.2742 -7.77654)"/><path class="cls-3" d="M19.129,241.71928a75.74563,75.74563,0,0,1-1.10065-12.84692c-.00963-3.07421.15815-6.20279.45859-9.36245L139.972,289.14046l-.73932,5.23216-.25618,2.27525,1.34393,11.10655,1.13981,4.08025Z" transform="translate(-10.2742 -7.77654)"/><path class="cls-3" d="M366.31989,240.37054l-.014-4.42187L203.19544,330.73478c-33.98547,19.76433-61.73708,3.85842-61.86074-35.45834-.12382-39.31675,27.42631-87.38355,61.41178-107.148l27.3-15.8764-.014-4.42186-27.3,15.8764c-36.0945,20.991-65.35174,72.03736-65.22033,113.79279s29.6026,58.64827,65.69709,37.65731Z" transform="translate(-10.2742 -7.77654)"/><path class="cls-3" d="M173.88257,344.98156a34.52981,34.52981,0,0,1-17.39339-4.44951c-12.67371-7.26383-19.68866-22.54539-19.75391-43.02914-.13205-42.00352,29.29936-93.35379,65.60777-114.46841l27.29985-15.87639a.777.777,0,0,1,1.16667.66909l.01368,4.42233a.77494.77494,0,0,1-.38682.675l-27.3,15.8764c-33.77171,19.64-61.14753,67.40391-61.02464,106.472.05918,18.7269,6.39449,32.65366,17.84094,39.2136,11.44629,6.56289,26.66277,4.99122,42.853-4.42388l163.11077-94.7858a.777.777,0,0,1,1.16668.66893l.01367,4.42233a.77832.77832,0,0,1-.38682.67515L203.59919,335.829C193.14186,341.90953,183.02441,344.98156,173.88257,344.98156Zm55.378-175.80422-26.13786,15.20125c-35.879,20.86435-64.96446,71.60938-64.834,113.11826.06214,19.90569,6.801,34.711,18.97267,41.688,12.17146,6.97549,28.35126,5.30829,45.55791-4.69994L365.54174,239.925l-.00761-2.629L203.58552,331.40667c-16.68483,9.70483-32.45342,11.27805-44.40506,4.42839-11.94854-6.84967-18.56146-21.25273-18.6222-40.55613-.126-39.56407,27.59721-87.93178,61.79845-107.82225l26.91148-15.65021Z" transform="translate(-10.2742 -7.77654)"/><path class="cls-1" d="M301.37688,247.6645l-63.837-36.037c-2.54773-1.43559-6.96913-1.206-9.87571.51281L191.188,233.7118c-2.90643,1.71878-3.19725,4.276-.64967,5.71157l63.83709,36.037c2.54773,1.43558,6.96913,1.206,9.87556-.51281l36.47619-21.5715C303.63377,251.65729,303.92461,249.10009,301.37688,247.6645Z" transform="translate(-10.2742 -7.77654)"/><path class="cls-3" d="M252.79181,262.01987l-65.62454-36.97874a3.3401,3.3401,0,0,1-1.94948-2.76491l-.03387.02548-.0741-7.30764s2.30523,1.89169,3.66189,3.00042l40.8906-24.18215c3.327-1.9675,8.38762-2.23035,11.304-.58706l62.72463,35.34462,4.798-2.83746.0853,7.37646-.028-.02346c-.01742,1.2647-.90912,2.59775-2.6989,3.65615l-41.75154,24.69123C260.76885,263.40031,255.70818,263.663,252.79181,262.01987Z" transform="translate(-10.2742 -7.77654)"/><path class="cls-3" d="M257.5876,263.88593a10.697,10.697,0,0,1-5.17624-1.18951h0l-65.62454-36.9789a4.18952,4.18952,0,0,1-2.32574-3.14645.69556.69556,0,0,1-.05451-.26238l-.07288-7.30779a.776.776,0,0,1,.44151-.70855.78734.78734,0,0,1,.82832.1002L188.844,217.049l40.42268-23.90625c3.59557-2.127,8.90541-2.38493,12.08059-.59468l62.33394,35.125,4.41161-2.60941a.778.778,0,0,1,1.17275.65993l.085,7.37614a.771.771,0,0,1-.04086.25633c-.1291,1.52475-1.20767,2.95537-3.06613,4.05524l-41.7517,24.69045A13.89273,13.89273,0,0,1,257.5876,263.88593Zm-4.41472-2.5426c2.6944,1.51543,7.417,1.26066,10.52711-.57961l41.7517-24.69046c1.45778-.86172,2.30288-1.95553,2.31795-2.99777a.811.811,0,0,1,.02439-.18362l-.0668-5.80743-3.64106,2.15423a.78737.78737,0,0,1-.77675.00761L240.5857,193.90135c-2.69593-1.5187-7.42011-1.26222-10.52709.57945l-40.89153,24.18231a.77583.77583,0,0,1-.88751-.0682l-2.3756-1.94653.053,5.40088a.7033.7033,0,0,1,.03788.20335,2.66894,2.66894,0,0,0,1.5535,2.11166Z" transform="translate(-10.2742 -7.77654)"/><path class="cls-2" d="M306.50789,222.767,240.883,185.78823c-2.91622-1.64313-7.977-1.38028-11.30384.58706l-41.75139,24.69123c-3.3268,1.96735-3.65972,4.89428-.74366,6.53757L252.709,254.58268c2.9162,1.64328,7.977,1.38043,11.30382-.58707l41.75139-24.69107C309.091,227.337,309.424,224.4101,306.50789,222.767Z" transform="translate(-10.2742 -7.77654)"/><path class="cls-3" d="M257.50418,256.4492a10.697,10.697,0,0,1-5.17624-1.18951l-65.62455-36.9789a4.11478,4.11478,0,0,1-2.38181-3.48464c-.01663-1.61579,1.11651-3.21931,3.11149-4.3981l41.75014-24.692c3.59712-2.12549,8.90525-2.38493,12.08059-.59468l65.62454,36.9789a4.11482,4.11482,0,0,1,2.38184,3.48464c.0166,1.61579-1.11667,3.2193-3.11165,4.3981l-41.75014,24.692A13.89286,13.89286,0,0,1,257.50418,256.4492Zm-21.403-70.97385a12.37787,12.37787,0,0,0-6.126,1.56872l-41.7517,24.692c-1.50348.88751-2.36055,1.9981-2.35,3.04484a2.693,2.693,0,0,0,1.5914,2.14662l65.62454,36.9789c2.69593,1.51559,7.417,1.26082,10.52709-.57945l41.75155-24.692c1.50349-.88751,2.36068-1.9981,2.35-3.04485a2.693,2.693,0,0,0-1.5914-2.14661l-65.62439-36.9789A9.13839,9.13839,0,0,0,236.10123,185.47535Z" transform="translate(-10.2742 -7.77654)"/><path class="cls-4" d="M237.66249,213.17958c2.416-1.42874,2.39207-3.704-.05342-5.08194a9.72844,9.72844,0,0,0-8.80243.092c-2.416,1.42874-2.392,3.70415.05345,5.0821A9.72839,9.72839,0,0,0,237.66249,213.17958Z" transform="translate(-10.2742 -7.77654)"/><path class="cls-4" d="M251.07613,220.73811c2.41615-1.42875,2.39223-3.70415-.05328-5.0821a9.7289,9.7289,0,0,0-8.80241.092c-2.416,1.42891-2.39207,3.70415.05329,5.0821A9.72884,9.72884,0,0,0,251.07613,220.73811Z" transform="translate(-10.2742 -7.77654)"/><path class="cls-4" d="M264.48993,228.29663c2.416-1.4289,2.39222-3.70415-.05329-5.0821a9.7288,9.7288,0,0,0-8.80238.092c-2.416,1.42875-2.39209,3.70415.05326,5.0821A9.72886,9.72886,0,0,0,264.48993,228.29663Z" transform="translate(-10.2742 -7.77654)"/><ellipse class="cls-1" cx="393.99855" cy="132.15317" rx="38.63397" ry="22.30531"/><path class="cls-3" d="M447.26965,120.09657v-7.90449h-2.27914a27.45992,27.45992,0,0,0-10.315-9.648c-16.79218-9.6952-44.017-9.6952-60.80856,0a27.45713,27.45713,0,0,0-10.31519,9.648h-2.27587v7.83971h.0031c-.02887,6.37507,4.164,12.75527,12.5889,17.61941,16.79186,9.6952,44.01684,9.6952,60.8084.00094C443.07273,132.80461,447.27058,126.45005,447.26965,120.09657Z" transform="translate(-10.2742 -7.77654)"/><path class="cls-3" d="M404.273,145.67624c-11.15222,0-22.30273-2.45-30.7938-7.3533-8.40007-4.84861-13.00895-11.34626-12.97713-18.29457l-.0031-7.83567a.777.777,0,0,1,.77674-.77674h1.83421a28.47491,28.47491,0,0,1,10.36928-9.544c16.9792-9.80176,44.60529-9.80643,61.58451,0a28.47985,28.47985,0,0,1,10.36771,9.544h1.83873a.77625.77625,0,0,1,.77675.77674v7.904c0,6.921-4.61048,13.39577-12.98179,18.22776C426.57556,143.22623,415.42351,145.67624,404.273,145.67624Zm-42.22054-32.70679v7.062c-.02579,6.37165,4.30863,12.38849,12.20349,16.94737,16.55137,9.55461,43.48118,9.55461,60.03241.0014,7.8708-4.54506,12.205-10.54061,12.205-16.88352v-7.12728h-1.5035a.77824.77824,0,0,1-.672-.38682,26.62094,26.62094,0,0,0-10.03091-9.36648c-16.55138-9.55461-43.47964-9.55461-60.031,0a26.63616,26.63616,0,0,0-10.03246,9.36648.77849.77849,0,0,1-.67207.38682Z" transform="translate(-10.2742 -7.77654)"/><ellipse class="cls-2" cx="393.99734" cy="104.41538" rx="42.99823" ry="24.825"/><path class="cls-3" d="M404.27143,137.77067c-11.15067,0-22.30274-2.45157-30.79225-7.35331-8.37133-4.83183-12.98319-11.30524-12.98319-18.22466,0-6.921,4.61031-13.39437,12.98319-18.22776,16.97765-9.80487,44.60374-9.80348,61.58451.00155,8.37271,4.83184,12.98319,11.30524,12.98319,18.22621,0,6.91942-4.61048,13.39283-12.98179,18.22466h0C426.57556,135.3191,415.42351,137.77067,404.27143,137.77067Zm-.00156-49.62682c-10.87,0-21.73835,2.38787-30.01394,7.16517-7.8722,4.54522-12.20644,10.54077-12.20644,16.88368,0,6.34137,4.3358,12.33537,12.20644,16.88058,16.55137,9.55461,43.48118,9.55461,60.03241,0h0c7.8708-4.54521,12.205-10.53921,12.205-16.88058,0-6.34291-4.3358-12.33691-12.20645-16.88212C426.01117,90.53327,415.13982,88.14385,404.26987,88.14385Z" transform="translate(-10.2742 -7.77654)"/><path class="cls-4" d="M383.54689,120.41084a1.93256,1.93256,0,0,1-1.133-1.58394l.04318-16.17451c.00264-1.2327,1.73867-2.23191,3.87568-2.23035,2.13852.00046,3.864,1.00278,3.86321,2.23858l-.0362,13.41194,38.9248-4.76659c2.09225-.25664,4.1455.51529,4.58918,1.72189.44448,1.20691-.89248,2.39347-2.98224,2.64949l-43.60471,5.33935a6.13473,6.13473,0,0,1-3.24245-.45051C383.74107,120.51679,383.64134,120.46537,383.54689,120.41084Z" transform="translate(-10.2742 -7.77654)"/></svg>