<svg id="Layer_1" data-name="Layer 1" xmlns="http://www.w3.org/2000/svg" xmlns:xlink="http://www.w3.org/1999/xlink" viewBox="0 0 757.62318 669.29792"><defs><style>.cls-1{fill:url(#linear-gradient);}</style><linearGradient id="linear-gradient" x1="225.16404" y1="396.22338" x2="982.78721" y2="396.22338" gradientUnits="userSpaceOnUse"><stop offset="0" stop-color="#29abe2"/><stop offset="1" stop-color="#0043bc"/></linearGradient></defs><path class="cls-1" d="M982.78721,563.854a165.70858,165.70858,0,0,1-49.24466,118.0729,168.078,168.078,0,0,1-98.53985,47.74924,176.88508,176.88508,0,0,1-20.48354,1.19623H581.60622v-1.19623c0-169.047,137.9875-305.897,308.19385-305.897,5.70938,0,11.3676.15587,17.02581.46795A166.50746,166.50746,0,0,1,982.78721,563.854ZM225.164,61.57442V369.66307c170.10083,0,308.089-137.93506,308.089-308.08865Zm591.18918,0h-234.747c1.25724,170.43336,138.721,308.08865,308.19385,308.08865,6.12888,0,12.31021-.211,18.43973-.58053a167.74467,167.74467,0,0,0,74.54741-139.87236C982.78721,136.63062,908.2398,61.57442,816.35322,61.57442ZM225.164,423.77906V730.87234H533.253C531.99577,561.04786,394.532,423.77906,225.164,423.77906Z" transform="translate(-225.16404 -61.57442)"/></svg>